<?xml version="1.0" standalone="no"?>
<!DOCTYPE svg PUBLIC "-//W3C//DTD SVG 20010904//EN"
 "http://www.w3.org/TR/2001/REC-SVG-20010904/DTD/svg10.dtd">
<svg version="1.0" xmlns="http://www.w3.org/2000/svg"
 width="512.000000pt" height="512.000000pt" viewBox="0 0 512.000000 512.000000"
 preserveAspectRatio="xMidYMid meet">

<g transform="translate(0.000000,512.000000) scale(0.100000,-0.100000)"
fill="#cd4945" stroke="none">
<path d="M2453 5096 c-58 -19 -104 -49 -150 -99 -29 -32 -309 -580 -1154
-2267 -613 -1224 -1122 -2241 -1130 -2260 -8 -20 -14 -68 -14 -115 0 -67 5
-90 29 -142 33 -73 103 -144 174 -176 l47 -22 2305 0 2305 0 47 22 c71 32 141
103 174 176 24 52 29 75 29 142 0 47 -6 95 -14 115 -8 19 -516 1036 -1130
2260 -1211 2417 -1143 2290 -1259 2347 -66 32 -190 42 -259 19z m931 -2756
l817 -1630 -1641 0 -1641 0 817 1630 c449 897 820 1630 824 1630 4 0 375 -733
824 -1630z"/>
</g>
</svg>
